<svg xmlns="http://www.w3.org/2000/svg" viewBox="0 0 400 300" preserveAspectRatio="xMidYMid meet">
  <defs>
    <linearGradient id="b1" x1="0" x2="1">
      <stop offset="0" stop-color="#ffd9ee" />
      <stop offset="1" stop-color="#fff1d8" />
    </linearGradient>
  </defs>
  <rect width="100%" height="100%" fill="transparent"/>
  <g transform="translate(200 160)">
    <ellipse rx="72" ry="46" fill="url(#b1)" />
    <g transform="translate(-20 -30)">
      <path d="M0 -10 C10 -30 50 -40 80 -20 C75 10 40 30 10 12 C-5 0 -10 -2 0 -10" fill="#f3a6d1"/>
      <path d="M-10 6 C-20 -6 -28 -14 -36 -12 C-28 0 -10 22 -2 18 C10 14 6 2 -10 6" fill="#fcd3a6"/>
    </g>
    <g transform="translate(30 -20)">
      <path d="M0 -12 C12 -22 28 -18 36 -6 C30 6 10 24 -6 6" fill="#f6c9e0"/>
    </g>
    <rect x="-10" y="20" width="20" height="80" rx="6" fill="#7b513f" />
  </g>
</svg>